<?xml version="1.0" encoding="utf-8"?>
<!-- Generator: Adobe Illustrator 27.6.1, SVG Export Plug-In . SVG Version: 6.00 Build 0)  -->
<svg version="1.1" id="Layer_1" xmlns="http://www.w3.org/2000/svg" xmlns:xlink="http://www.w3.org/1999/xlink" x="0px" y="0px"
	 viewBox="0 0 256 256" style="enable-background:new 0 0 256 256;" xml:space="preserve">
<g>
	<path d="M117.9,121.7c1.9-1.5,3.5-3.1,4.9-4.7c5.5-6.6,8.2-15.2,8.2-25.7c0-10.1-2.7-18.9-8-26.3c-8.7-11.8-23.3-18-43.5-18.3H1.1
		v162.1h73.5c8,0,15.5-0.7,22.5-2.2c7.3-1.5,13.8-4.4,19.2-8.6c4.8-3.6,8.8-8.1,12-13.3c5-7.9,7.5-17,7.5-27c0-9.7-2.3-18.1-6.7-25
		C126.3,128.4,122.5,124.7,117.9,121.7z M11.6,57.3l67.9,0c16.9,0.3,28.4,4.9,35.1,14c3.9,5.5,5.9,12.2,5.9,20.1
		c0,8.1-1.9,14.3-5.8,19c-2.1,2.6-5.5,5-9.9,7.3l-10.7,5.5l11.3,4.1c6.6,2.4,11.6,6.2,14.9,11.3l0,0.1c3.3,5.2,5,11.7,5,19.3
		c0,8-2,15.2-6,21.5c-2.5,4.2-5.7,7.7-9.4,10.5c-4.2,3.2-9.2,5.4-15,6.6c-6.2,1.3-13.1,1.9-20.4,1.9H11.6V57.3z"/>
	<path d="M231.7,53.1h-71.5v25.6h71.5V53.1z M170.6,68.3v-4.7h50.6l0,4.7H170.6z"/>
	<path d="M254.3,130.3c-1.5-9.3-4.7-17.6-9.5-24.6c-5.4-8.1-12.5-14.1-21-17.9c-8.2-3.7-17.5-5.5-27.7-5.5
		c-17.3,0-31.6,5.6-42.6,16.6c-10.9,11-16.5,26.8-16.5,47c0,21.6,6.2,37.6,18.5,47.6c12,9.6,26,14.5,41.5,14.5
		c18.9,0,34-5.9,44.7-17.5c7-7.4,11-15,11.9-22.6l0.7-5.8h-38l-1.5,2.8c-1.4,2.6-2.9,4.5-4.5,5.9c-3.1,2.5-7.1,3.8-12.4,3.8
		c-5.1,0-9.5-1.1-12.9-3.3c-4.4-2.7-7.1-7-8.3-13.2h78.4l0.1-5.2C255.4,143.2,255.1,135.7,254.3,130.3z M241.7,172.4
		c-1.5,3.5-4,7.2-7.5,10.9c-8.7,9.4-21.1,14.2-37,14.2c-13.1,0-24.9-4.1-35-12.2c-9.7-7.9-14.6-21.1-14.6-39.4
		c0-17.3,4.5-30.7,13.4-39.6c9.1-9.1,20.6-13.5,35.2-13.5c8.7,0,16.5,1.6,23.4,4.6c6.6,3,12.2,7.8,16.6,14.3
		c4,5.8,6.6,12.6,7.8,20.3c0.6,3.8,0.9,9.1,0.9,15.5h-79.3l0.2,5.4c0.5,12.7,5.2,21.9,13.8,27.1c5.1,3.2,11.3,4.9,18.5,4.9
		c7.7,0,14.1-2.1,19-6.1c2-1.6,3.9-3.7,5.5-6.3H241.7z"/>
	<path d="M225.8,133.5c-0.6-9-3.8-15.9-9.4-20.7c-5.5-4.8-12.3-7.2-20.3-7.2c-8.7,0-15.7,2.6-20.7,7.8c-4.8,4.9-7.8,11.5-9,19.7
		l-0.9,6h60.6L225.8,133.5z M178.2,128.7c1.1-3.2,2.7-5.9,4.7-7.9c3-3.1,7.3-4.6,13.2-4.6c5.4,0,9.9,1.5,13.4,4.6
		c2.3,2,3.9,4.6,4.9,8H178.2z"/>
	<path d="M92.2,112.5c5.7-3.5,8.7-9.5,8.7-17.8c0-11.7-6.3-16.7-11.6-18.9l-0.2-0.1c-5.2-1.8-11.8-2.6-19.6-2.6H36.1v43.9h37.3
		C80.9,117.1,87.2,115.5,92.2,112.5z M46.5,106.6v-23h23c6.5,0,12,0.7,16,2c2.4,1,4.8,2.9,4.8,9.1c0,6-2.1,7.9-3.6,8.9
		c-3.3,2-7.7,3-13.3,3H46.5z"/>
	<path d="M103.9,155.7c0-9.8-4.5-17.3-12.7-21c-4.3-2-10-3-17.4-3.1H36.1v50.9h37.3c7.5,0,13.3-1,17.7-3.2
		C99.6,175.1,103.9,167.2,103.9,155.7z M46.5,142.2h27.3c5.8,0.1,10.1,0.8,13,2.1c4.5,2,6.6,5.7,6.6,11.5c0,7.3-2.2,11.8-7,14.2
		c-2.9,1.4-7.3,2.1-13.1,2.1H46.5V142.2z"/>
</g>
</svg>
